<mxfile host="drawio-plugin" modified="2023-09-25T18:11:12.275Z" agent="5.0 (Macintosh; Intel Mac OS X 10_15_7) AppleWebKit/537.36 (KHTML, like Gecko) Chrome/111.0.0.0 Safari/537.36" etag="8qm9MI0xPl0TCAE8W8D_" version="20.5.3" type="embed" pages="4"><diagram id="C5RBs43oDa-KdzZeNtuy" name="domeindiagram"><mxGraphModel dx="762" dy="812" grid="1" gridSize="10" guides="1" tooltips="1" connect="1" arrows="1" fold="1" page="1" pageScale="1" pageWidth="827" pageHeight="1169" math="0" shadow="0"><root><mxCell id="WIyWlLk6GJQsqaUBKTNV-0"/><mxCell id="WIyWlLk6GJQsqaUBKTNV-1" parent="WIyWlLk6GJQsqaUBKTNV-0"/><mxCell id="zkfFHV4jXpPFQw0GAbJ--0" value="User" style="swimlane;fontStyle=0;align=center;verticalAlign=top;childLayout=stackLayout;horizontal=1;startSize=26;horizontalStack=0;resizeParent=1;resizeLast=0;collapsible=1;marginBottom=0;rounded=0;shadow=0;strokeWidth=1;" parent="WIyWlLk6GJQsqaUBKTNV-1" vertex="1"><mxGeometry x="220" y="120" width="160" height="338" as="geometry"><mxRectangle x="230" y="140" width="160" height="26" as="alternateBounds"/></mxGeometry></mxCell><mxCell id="zkfFHV4jXpPFQw0GAbJ--1" value="UUID" style="text;align=left;verticalAlign=top;spacingLeft=4;spacingRight=4;overflow=hidden;rotatable=0;points=[[0,0.5],[1,0.5]];portConstraint=eastwest;" parent="zkfFHV4jXpPFQw0GAbJ--0" vertex="1"><mxGeometry y="26" width="160" height="26" as="geometry"/></mxCell><mxCell id="zkfFHV4jXpPFQw0GAbJ--2" value="FirstName" style="text;align=left;verticalAlign=top;spacingLeft=4;spacingRight=4;overflow=hidden;rotatable=0;points=[[0,0.5],[1,0.5]];portConstraint=eastwest;rounded=0;shadow=0;html=0;" parent="zkfFHV4jXpPFQw0GAbJ--0" vertex="1"><mxGeometry y="52" width="160" height="26" as="geometry"/></mxCell><mxCell id="zkfFHV4jXpPFQw0GAbJ--3" value="LastName" style="text;align=left;verticalAlign=top;spacingLeft=4;spacingRight=4;overflow=hidden;rotatable=0;points=[[0,0.5],[1,0.5]];portConstraint=eastwest;rounded=0;shadow=0;html=0;" parent="zkfFHV4jXpPFQw0GAbJ--0" vertex="1"><mxGeometry y="78" width="160" height="26" as="geometry"/></mxCell><mxCell id="3hApbhPf80rMxBJzAIVT-0" value="EmailAddress" style="text;align=left;verticalAlign=top;spacingLeft=4;spacingRight=4;overflow=hidden;rotatable=0;points=[[0,0.5],[1,0.5]];portConstraint=eastwest;rounded=0;shadow=0;html=0;" parent="zkfFHV4jXpPFQw0GAbJ--0" vertex="1"><mxGeometry y="104" width="160" height="26" as="geometry"/></mxCell><mxCell id="3hApbhPf80rMxBJzAIVT-1" value="Password" style="text;align=left;verticalAlign=top;spacingLeft=4;spacingRight=4;overflow=hidden;rotatable=0;points=[[0,0.5],[1,0.5]];portConstraint=eastwest;rounded=0;shadow=0;html=0;" parent="zkfFHV4jXpPFQw0GAbJ--0" vertex="1"><mxGeometry y="130" width="160" height="26" as="geometry"/></mxCell><mxCell id="3hApbhPf80rMxBJzAIVT-8" value="StreetName" style="text;align=left;verticalAlign=top;spacingLeft=4;spacingRight=4;overflow=hidden;rotatable=0;points=[[0,0.5],[1,0.5]];portConstraint=eastwest;rounded=0;shadow=0;html=0;" parent="zkfFHV4jXpPFQw0GAbJ--0" vertex="1"><mxGeometry y="156" width="160" height="26" as="geometry"/></mxCell><mxCell id="3hApbhPf80rMxBJzAIVT-9" value="HouseNumber" style="text;align=left;verticalAlign=top;spacingLeft=4;spacingRight=4;overflow=hidden;rotatable=0;points=[[0,0.5],[1,0.5]];portConstraint=eastwest;rounded=0;shadow=0;html=0;" parent="zkfFHV4jXpPFQw0GAbJ--0" vertex="1"><mxGeometry y="182" width="160" height="26" as="geometry"/></mxCell><mxCell id="3hApbhPf80rMxBJzAIVT-10" value="PostalCode" style="text;align=left;verticalAlign=top;spacingLeft=4;spacingRight=4;overflow=hidden;rotatable=0;points=[[0,0.5],[1,0.5]];portConstraint=eastwest;rounded=0;shadow=0;html=0;" parent="zkfFHV4jXpPFQw0GAbJ--0" vertex="1"><mxGeometry y="208" width="160" height="26" as="geometry"/></mxCell><mxCell id="3hApbhPf80rMxBJzAIVT-11" value="City" style="text;align=left;verticalAlign=top;spacingLeft=4;spacingRight=4;overflow=hidden;rotatable=0;points=[[0,0.5],[1,0.5]];portConstraint=eastwest;rounded=0;shadow=0;html=0;" parent="zkfFHV4jXpPFQw0GAbJ--0" vertex="1"><mxGeometry y="234" width="160" height="26" as="geometry"/></mxCell><mxCell id="3hApbhPf80rMxBJzAIVT-12" value="Country" style="text;align=left;verticalAlign=top;spacingLeft=4;spacingRight=4;overflow=hidden;rotatable=0;points=[[0,0.5],[1,0.5]];portConstraint=eastwest;rounded=0;shadow=0;html=0;" parent="zkfFHV4jXpPFQw0GAbJ--0" vertex="1"><mxGeometry y="260" width="160" height="26" as="geometry"/></mxCell><mxCell id="3oTUbULsru1Yke74gjsG-0" value="Latitude" style="text;align=left;verticalAlign=top;spacingLeft=4;spacingRight=4;overflow=hidden;rotatable=0;points=[[0,0.5],[1,0.5]];portConstraint=eastwest;rounded=0;shadow=0;html=0;" parent="zkfFHV4jXpPFQw0GAbJ--0" vertex="1"><mxGeometry y="286" width="160" height="26" as="geometry"/></mxCell><mxCell id="3oTUbULsru1Yke74gjsG-1" value="Longitude" style="text;align=left;verticalAlign=top;spacingLeft=4;spacingRight=4;overflow=hidden;rotatable=0;points=[[0,0.5],[1,0.5]];portConstraint=eastwest;rounded=0;shadow=0;html=0;" parent="zkfFHV4jXpPFQw0GAbJ--0" vertex="1"><mxGeometry y="312" width="160" height="26" as="geometry"/></mxCell><mxCell id="zkfFHV4jXpPFQw0GAbJ--6" value="Car" style="swimlane;fontStyle=0;align=center;verticalAlign=top;childLayout=stackLayout;horizontal=1;startSize=26;horizontalStack=0;resizeParent=1;resizeLast=0;collapsible=1;marginBottom=0;rounded=0;shadow=0;strokeWidth=1;" parent="WIyWlLk6GJQsqaUBKTNV-1" vertex="1"><mxGeometry x="195" y="530" width="210" height="234" as="geometry"><mxRectangle x="130" y="380" width="160" height="26" as="alternateBounds"/></mxGeometry></mxCell><mxCell id="zkfFHV4jXpPFQw0GAbJ--7" value="UUID" style="text;align=left;verticalAlign=top;spacingLeft=4;spacingRight=4;overflow=hidden;rotatable=0;points=[[0,0.5],[1,0.5]];portConstraint=eastwest;" parent="zkfFHV4jXpPFQw0GAbJ--6" vertex="1"><mxGeometry y="26" width="210" height="26" as="geometry"/></mxCell><mxCell id="zkfFHV4jXpPFQw0GAbJ--8" value="BrandName" style="text;align=left;verticalAlign=top;spacingLeft=4;spacingRight=4;overflow=hidden;rotatable=0;points=[[0,0.5],[1,0.5]];portConstraint=eastwest;rounded=0;shadow=0;html=0;" parent="zkfFHV4jXpPFQw0GAbJ--6" vertex="1"><mxGeometry y="52" width="210" height="26" as="geometry"/></mxCell><mxCell id="3hApbhPf80rMxBJzAIVT-2" value="ModelName" style="text;align=left;verticalAlign=top;spacingLeft=4;spacingRight=4;overflow=hidden;rotatable=0;points=[[0,0.5],[1,0.5]];portConstraint=eastwest;rounded=0;shadow=0;html=0;" parent="zkfFHV4jXpPFQw0GAbJ--6" vertex="1"><mxGeometry y="78" width="210" height="26" as="geometry"/></mxCell><mxCell id="3hApbhPf80rMxBJzAIVT-3" value="LicensePlate" style="text;align=left;verticalAlign=top;spacingLeft=4;spacingRight=4;overflow=hidden;rotatable=0;points=[[0,0.5],[1,0.5]];portConstraint=eastwest;rounded=0;shadow=0;html=0;" parent="zkfFHV4jXpPFQw0GAbJ--6" vertex="1"><mxGeometry y="104" width="210" height="26" as="geometry"/></mxCell><mxCell id="3hApbhPf80rMxBJzAIVT-4" value="Color" style="text;align=left;verticalAlign=top;spacingLeft=4;spacingRight=4;overflow=hidden;rotatable=0;points=[[0,0.5],[1,0.5]];portConstraint=eastwest;rounded=0;shadow=0;html=0;" parent="zkfFHV4jXpPFQw0GAbJ--6" vertex="1"><mxGeometry y="130" width="210" height="26" as="geometry"/></mxCell><mxCell id="3hApbhPf80rMxBJzAIVT-5" value="FuelType (ICE/BEV/FCEV)" style="text;align=left;verticalAlign=top;spacingLeft=4;spacingRight=4;overflow=hidden;rotatable=0;points=[[0,0.5],[1,0.5]];portConstraint=eastwest;rounded=0;shadow=0;html=0;" parent="zkfFHV4jXpPFQw0GAbJ--6" vertex="1"><mxGeometry y="156" width="210" height="26" as="geometry"/></mxCell><mxCell id="3hApbhPf80rMxBJzAIVT-26" value="RatePerHour" style="text;align=left;verticalAlign=top;spacingLeft=4;spacingRight=4;overflow=hidden;rotatable=0;points=[[0,0.5],[1,0.5]];portConstraint=eastwest;rounded=0;shadow=0;html=0;" parent="zkfFHV4jXpPFQw0GAbJ--6" vertex="1"><mxGeometry y="182" width="210" height="26" as="geometry"/></mxCell><mxCell id="3hApbhPf80rMxBJzAIVT-27" value="Status (Draft/Active)" style="text;align=left;verticalAlign=top;spacingLeft=4;spacingRight=4;overflow=hidden;rotatable=0;points=[[0,0.5],[1,0.5]];portConstraint=eastwest;rounded=0;shadow=0;html=0;" parent="zkfFHV4jXpPFQw0GAbJ--6" vertex="1"><mxGeometry y="208" width="210" height="26" as="geometry"/></mxCell><mxCell id="zkfFHV4jXpPFQw0GAbJ--12" value="Owns a" style="endArrow=ERzeroToMany;endSize=10;endFill=0;shadow=0;strokeWidth=1;rounded=0;edgeStyle=elbowEdgeStyle;elbow=horizontal;startArrow=ERone;startFill=0;" parent="WIyWlLk6GJQsqaUBKTNV-1" source="zkfFHV4jXpPFQw0GAbJ--0" target="zkfFHV4jXpPFQw0GAbJ--6" edge="1"><mxGeometry width="160" relative="1" as="geometry"><mxPoint x="200" y="203" as="sourcePoint"/><mxPoint x="200" y="203" as="targetPoint"/></mxGeometry></mxCell><mxCell id="3hApbhPf80rMxBJzAIVT-13" value="Reservations" style="swimlane;fontStyle=0;align=center;verticalAlign=top;childLayout=stackLayout;horizontal=1;startSize=26;horizontalStack=0;resizeParent=1;resizeLast=0;collapsible=1;marginBottom=0;rounded=0;shadow=0;strokeWidth=1;" parent="WIyWlLk6GJQsqaUBKTNV-1" vertex="1"><mxGeometry x="540" y="244" width="160" height="106" as="geometry"><mxRectangle x="230" y="140" width="160" height="26" as="alternateBounds"/></mxGeometry></mxCell><mxCell id="3hApbhPf80rMxBJzAIVT-14" value="UUID" style="text;align=left;verticalAlign=top;spacingLeft=4;spacingRight=4;overflow=hidden;rotatable=0;points=[[0,0.5],[1,0.5]];portConstraint=eastwest;" parent="3hApbhPf80rMxBJzAIVT-13" vertex="1"><mxGeometry y="26" width="160" height="26" as="geometry"/></mxCell><mxCell id="3hApbhPf80rMxBJzAIVT-15" value="StartDateTimeUTC" style="text;align=left;verticalAlign=top;spacingLeft=4;spacingRight=4;overflow=hidden;rotatable=0;points=[[0,0.5],[1,0.5]];portConstraint=eastwest;rounded=0;shadow=0;html=0;" parent="3hApbhPf80rMxBJzAIVT-13" vertex="1"><mxGeometry y="52" width="160" height="26" as="geometry"/></mxCell><mxCell id="3hApbhPf80rMxBJzAIVT-16" value="EndDateTimeUTC" style="text;align=left;verticalAlign=top;spacingLeft=4;spacingRight=4;overflow=hidden;rotatable=0;points=[[0,0.5],[1,0.5]];portConstraint=eastwest;rounded=0;shadow=0;html=0;" parent="3hApbhPf80rMxBJzAIVT-13" vertex="1"><mxGeometry y="78" width="160" height="26" as="geometry"/></mxCell><mxCell id="3hApbhPf80rMxBJzAIVT-24" value="Makes a" style="edgeStyle=orthogonalEdgeStyle;rounded=0;orthogonalLoop=1;jettySize=auto;html=1;exitX=1;exitY=0.5;exitDx=0;exitDy=0;entryX=0;entryY=0.5;entryDx=0;entryDy=0;startArrow=ERone;startFill=0;endArrow=ERmany;endFill=0;" parent="WIyWlLk6GJQsqaUBKTNV-1" source="3hApbhPf80rMxBJzAIVT-1" target="3hApbhPf80rMxBJzAIVT-14" edge="1"><mxGeometry relative="1" as="geometry"/></mxCell><mxCell id="3hApbhPf80rMxBJzAIVT-25" value="is reserved &lt;br&gt;through a" style="edgeStyle=orthogonalEdgeStyle;rounded=0;orthogonalLoop=1;jettySize=auto;html=1;exitX=1;exitY=0.5;exitDx=0;exitDy=0;entryX=0;entryY=0.5;entryDx=0;entryDy=0;startArrow=ERone;startFill=0;endArrow=ERmany;endFill=0;" parent="WIyWlLk6GJQsqaUBKTNV-1" source="zkfFHV4jXpPFQw0GAbJ--7" target="3hApbhPf80rMxBJzAIVT-16" edge="1"><mxGeometry relative="1" as="geometry"><mxPoint x="540" y="441" as="targetPoint"/></mxGeometry></mxCell><mxCell id="3hApbhPf80rMxBJzAIVT-28" value="Photo" style="swimlane;fontStyle=0;align=center;verticalAlign=top;childLayout=stackLayout;horizontal=1;startSize=26;horizontalStack=0;resizeParent=1;resizeLast=0;collapsible=1;marginBottom=0;rounded=0;shadow=0;strokeWidth=1;" parent="WIyWlLk6GJQsqaUBKTNV-1" vertex="1"><mxGeometry x="520" y="533" width="210" height="104" as="geometry"><mxRectangle x="130" y="380" width="160" height="26" as="alternateBounds"/></mxGeometry></mxCell><mxCell id="3hApbhPf80rMxBJzAIVT-29" value="UUID" style="text;align=left;verticalAlign=top;spacingLeft=4;spacingRight=4;overflow=hidden;rotatable=0;points=[[0,0.5],[1,0.5]];portConstraint=eastwest;" parent="3hApbhPf80rMxBJzAIVT-28" vertex="1"><mxGeometry y="26" width="210" height="26" as="geometry"/></mxCell><mxCell id="3hApbhPf80rMxBJzAIVT-30" value="Index" style="text;align=left;verticalAlign=top;spacingLeft=4;spacingRight=4;overflow=hidden;rotatable=0;points=[[0,0.5],[1,0.5]];portConstraint=eastwest;rounded=0;shadow=0;html=0;" parent="3hApbhPf80rMxBJzAIVT-28" vertex="1"><mxGeometry y="52" width="210" height="26" as="geometry"/></mxCell><mxCell id="3hApbhPf80rMxBJzAIVT-31" value="FilePath" style="text;align=left;verticalAlign=top;spacingLeft=4;spacingRight=4;overflow=hidden;rotatable=0;points=[[0,0.5],[1,0.5]];portConstraint=eastwest;rounded=0;shadow=0;html=0;" parent="3hApbhPf80rMxBJzAIVT-28" vertex="1"><mxGeometry y="78" width="210" height="26" as="geometry"/></mxCell><mxCell id="3hApbhPf80rMxBJzAIVT-37" value="is illustrated in" style="edgeStyle=orthogonalEdgeStyle;rounded=0;orthogonalLoop=1;jettySize=auto;html=1;exitX=1;exitY=0.5;exitDx=0;exitDy=0;entryX=0;entryY=0.5;entryDx=0;entryDy=0;startArrow=ERone;startFill=0;endArrow=ERmany;endFill=0;" parent="WIyWlLk6GJQsqaUBKTNV-1" source="3hApbhPf80rMxBJzAIVT-3" target="3hApbhPf80rMxBJzAIVT-30" edge="1"><mxGeometry relative="1" as="geometry"/></mxCell></root></mxGraphModel></diagram><diagram id="1nALkmS6-Ehj6h-pebh_" name="klassendiagram"><mxGraphModel dx="1970" dy="804" grid="1" gridSize="10" guides="1" tooltips="1" connect="1" arrows="1" fold="1" page="1" pageScale="1" pageWidth="827" pageHeight="1169" math="0" shadow="0"><root><mxCell id="0"/><mxCell id="1" parent="0"/><mxCell id="A_s1rYqLr12piJHS32EF-1" value="User" style="swimlane;fontStyle=1;align=center;verticalAlign=top;childLayout=stackLayout;horizontal=1;startSize=26;horizontalStack=0;resizeParent=1;resizeParentMax=0;resizeLast=0;collapsible=1;marginBottom=0;whiteSpace=wrap;html=1;" parent="1" vertex="1"><mxGeometry x="150" y="200" width="160" height="338" as="geometry"/></mxCell><mxCell id="A_s1rYqLr12piJHS32EF-2" value="+ uuid: str" style="text;strokeColor=none;fillColor=none;align=left;verticalAlign=top;spacingLeft=4;spacingRight=4;overflow=hidden;rotatable=0;points=[[0,0.5],[1,0.5]];portConstraint=eastwest;whiteSpace=wrap;html=1;" parent="A_s1rYqLr12piJHS32EF-1" vertex="1"><mxGeometry y="26" width="160" height="26" as="geometry"/></mxCell><mxCell id="A_s1rYqLr12piJHS32EF-5" value="+ firstName: str" style="text;strokeColor=none;fillColor=none;align=left;verticalAlign=top;spacingLeft=4;spacingRight=4;overflow=hidden;rotatable=0;points=[[0,0.5],[1,0.5]];portConstraint=eastwest;whiteSpace=wrap;html=1;" parent="A_s1rYqLr12piJHS32EF-1" vertex="1"><mxGeometry y="52" width="160" height="26" as="geometry"/></mxCell><mxCell id="A_s1rYqLr12piJHS32EF-6" value="+ lastName: str" style="text;strokeColor=none;fillColor=none;align=left;verticalAlign=top;spacingLeft=4;spacingRight=4;overflow=hidden;rotatable=0;points=[[0,0.5],[1,0.5]];portConstraint=eastwest;whiteSpace=wrap;html=1;" parent="A_s1rYqLr12piJHS32EF-1" vertex="1"><mxGeometry y="78" width="160" height="26" as="geometry"/></mxCell><mxCell id="A_s1rYqLr12piJHS32EF-7" value="+ emailAddress: str" style="text;strokeColor=none;fillColor=none;align=left;verticalAlign=top;spacingLeft=4;spacingRight=4;overflow=hidden;rotatable=0;points=[[0,0.5],[1,0.5]];portConstraint=eastwest;whiteSpace=wrap;html=1;" parent="A_s1rYqLr12piJHS32EF-1" vertex="1"><mxGeometry y="104" width="160" height="26" as="geometry"/></mxCell><mxCell id="W5R4l1Q2JAXtJLoxLTbv-1" value="- password: str" style="text;strokeColor=none;fillColor=none;align=left;verticalAlign=top;spacingLeft=4;spacingRight=4;overflow=hidden;rotatable=0;points=[[0,0.5],[1,0.5]];portConstraint=eastwest;whiteSpace=wrap;html=1;" parent="A_s1rYqLr12piJHS32EF-1" vertex="1"><mxGeometry y="130" width="160" height="26" as="geometry"/></mxCell><mxCell id="-pmeifHInKK3oqU2oqRf-7" value="+ streetName: str" style="text;strokeColor=none;fillColor=none;align=left;verticalAlign=top;spacingLeft=4;spacingRight=4;overflow=hidden;rotatable=0;points=[[0,0.5],[1,0.5]];portConstraint=eastwest;whiteSpace=wrap;html=1;" parent="A_s1rYqLr12piJHS32EF-1" vertex="1"><mxGeometry y="156" width="160" height="26" as="geometry"/></mxCell><mxCell id="-pmeifHInKK3oqU2oqRf-8" value="+ houseNumber: str" style="text;strokeColor=none;fillColor=none;align=left;verticalAlign=top;spacingLeft=4;spacingRight=4;overflow=hidden;rotatable=0;points=[[0,0.5],[1,0.5]];portConstraint=eastwest;whiteSpace=wrap;html=1;" parent="A_s1rYqLr12piJHS32EF-1" vertex="1"><mxGeometry y="182" width="160" height="26" as="geometry"/></mxCell><mxCell id="-pmeifHInKK3oqU2oqRf-9" value="+ postalCode: str" style="text;strokeColor=none;fillColor=none;align=left;verticalAlign=top;spacingLeft=4;spacingRight=4;overflow=hidden;rotatable=0;points=[[0,0.5],[1,0.5]];portConstraint=eastwest;whiteSpace=wrap;html=1;" parent="A_s1rYqLr12piJHS32EF-1" vertex="1"><mxGeometry y="208" width="160" height="26" as="geometry"/></mxCell><mxCell id="-pmeifHInKK3oqU2oqRf-10" value="+ city: str" style="text;strokeColor=none;fillColor=none;align=left;verticalAlign=top;spacingLeft=4;spacingRight=4;overflow=hidden;rotatable=0;points=[[0,0.5],[1,0.5]];portConstraint=eastwest;whiteSpace=wrap;html=1;" parent="A_s1rYqLr12piJHS32EF-1" vertex="1"><mxGeometry y="234" width="160" height="26" as="geometry"/></mxCell><mxCell id="-pmeifHInKK3oqU2oqRf-11" value="+ country: str" style="text;strokeColor=none;fillColor=none;align=left;verticalAlign=top;spacingLeft=4;spacingRight=4;overflow=hidden;rotatable=0;points=[[0,0.5],[1,0.5]];portConstraint=eastwest;whiteSpace=wrap;html=1;" parent="A_s1rYqLr12piJHS32EF-1" vertex="1"><mxGeometry y="260" width="160" height="26" as="geometry"/></mxCell><mxCell id="zPbbqET0IFVI--2YhtGD-1" value="+ latitude: float" style="text;strokeColor=none;fillColor=none;align=left;verticalAlign=top;spacingLeft=4;spacingRight=4;overflow=hidden;rotatable=0;points=[[0,0.5],[1,0.5]];portConstraint=eastwest;whiteSpace=wrap;html=1;" parent="A_s1rYqLr12piJHS32EF-1" vertex="1"><mxGeometry y="286" width="160" height="26" as="geometry"/></mxCell><mxCell id="zPbbqET0IFVI--2YhtGD-2" value="+ longitute: float" style="text;strokeColor=none;fillColor=none;align=left;verticalAlign=top;spacingLeft=4;spacingRight=4;overflow=hidden;rotatable=0;points=[[0,0.5],[1,0.5]];portConstraint=eastwest;whiteSpace=wrap;html=1;" parent="A_s1rYqLr12piJHS32EF-1" vertex="1"><mxGeometry y="312" width="160" height="26" as="geometry"/></mxCell><mxCell id="g_vVmAjFJ8hruE3HLXTL-1" value="Reservation" style="swimlane;fontStyle=1;align=center;verticalAlign=top;childLayout=stackLayout;horizontal=1;startSize=26;horizontalStack=0;resizeParent=1;resizeLast=0;collapsible=1;marginBottom=0;rounded=0;shadow=0;strokeWidth=1;" parent="1" vertex="1"><mxGeometry x="390" y="280" width="190" height="208" as="geometry"><mxRectangle x="230" y="140" width="160" height="26" as="alternateBounds"/></mxGeometry></mxCell><mxCell id="g_vVmAjFJ8hruE3HLXTL-2" value="+ uuid: str" style="text;align=left;verticalAlign=top;spacingLeft=4;spacingRight=4;overflow=hidden;rotatable=0;points=[[0,0.5],[1,0.5]];portConstraint=eastwest;" parent="g_vVmAjFJ8hruE3HLXTL-1" vertex="1"><mxGeometry y="26" width="190" height="26" as="geometry"/></mxCell><mxCell id="g_vVmAjFJ8hruE3HLXTL-3" value="+ startDateTimeUTC: DateTime" style="text;align=left;verticalAlign=top;spacingLeft=4;spacingRight=4;overflow=hidden;rotatable=0;points=[[0,0.5],[1,0.5]];portConstraint=eastwest;rounded=0;shadow=0;html=0;" parent="g_vVmAjFJ8hruE3HLXTL-1" vertex="1"><mxGeometry y="52" width="190" height="26" as="geometry"/></mxCell><mxCell id="g_vVmAjFJ8hruE3HLXTL-4" value="+ endDateTimeUTC: DateTime" style="text;align=left;verticalAlign=top;spacingLeft=4;spacingRight=4;overflow=hidden;rotatable=0;points=[[0,0.5],[1,0.5]];portConstraint=eastwest;rounded=0;shadow=0;html=0;" parent="g_vVmAjFJ8hruE3HLXTL-1" vertex="1"><mxGeometry y="78" width="190" height="26" as="geometry"/></mxCell><mxCell id="Ig2uRAytkQ5Z8zQ3bVlE-1" value="+ rentor: User" style="text;align=left;verticalAlign=top;spacingLeft=4;spacingRight=4;overflow=hidden;rotatable=0;points=[[0,0.5],[1,0.5]];portConstraint=eastwest;rounded=0;shadow=0;html=0;" parent="g_vVmAjFJ8hruE3HLXTL-1" vertex="1"><mxGeometry y="104" width="190" height="26" as="geometry"/></mxCell><mxCell id="JZjeRbwG5Vq-8LtE4GoN-1" value="+ rentee: User" style="text;align=left;verticalAlign=top;spacingLeft=4;spacingRight=4;overflow=hidden;rotatable=0;points=[[0,0.5],[1,0.5]];portConstraint=eastwest;rounded=0;shadow=0;html=0;" parent="g_vVmAjFJ8hruE3HLXTL-1" vertex="1"><mxGeometry y="130" width="190" height="26" as="geometry"/></mxCell><mxCell id="JZjeRbwG5Vq-8LtE4GoN-2" value="+ rentedCar: Car" style="text;align=left;verticalAlign=top;spacingLeft=4;spacingRight=4;overflow=hidden;rotatable=0;points=[[0,0.5],[1,0.5]];portConstraint=eastwest;rounded=0;shadow=0;html=0;" parent="g_vVmAjFJ8hruE3HLXTL-1" vertex="1"><mxGeometry y="156" width="190" height="26" as="geometry"/></mxCell><mxCell id="mRM5BXLjuTyYdOY6dDIa-1" value="+ totalPrice: int" style="text;align=left;verticalAlign=top;spacingLeft=4;spacingRight=4;overflow=hidden;rotatable=0;points=[[0,0.5],[1,0.5]];portConstraint=eastwest;rounded=0;shadow=0;html=0;" parent="g_vVmAjFJ8hruE3HLXTL-1" vertex="1"><mxGeometry y="182" width="190" height="26" as="geometry"/></mxCell><mxCell id="JZjeRbwG5Vq-8LtE4GoN-3" style="edgeStyle=orthogonalEdgeStyle;rounded=0;orthogonalLoop=1;jettySize=auto;html=1;entryX=1;entryY=0.5;entryDx=0;entryDy=0;" parent="1" source="Ig2uRAytkQ5Z8zQ3bVlE-1" target="A_s1rYqLr12piJHS32EF-7" edge="1"><mxGeometry relative="1" as="geometry"/></mxCell><mxCell id="JZjeRbwG5Vq-8LtE4GoN-4" style="edgeStyle=orthogonalEdgeStyle;rounded=0;orthogonalLoop=1;jettySize=auto;html=1;entryX=1;entryY=0.5;entryDx=0;entryDy=0;" parent="1" source="JZjeRbwG5Vq-8LtE4GoN-1" target="W5R4l1Q2JAXtJLoxLTbv-1" edge="1"><mxGeometry relative="1" as="geometry"/></mxCell><mxCell id="tTG1YdnLO19sm-DXW6Sr-1" value="Car" style="swimlane;fontStyle=1;align=center;verticalAlign=top;childLayout=stackLayout;horizontal=1;startSize=26;horizontalStack=0;resizeParent=1;resizeLast=0;collapsible=1;marginBottom=0;rounded=0;shadow=0;strokeWidth=1;" parent="1" vertex="1"><mxGeometry x="380" y="530" width="210" height="260" as="geometry"><mxRectangle x="130" y="380" width="160" height="26" as="alternateBounds"/></mxGeometry></mxCell><mxCell id="tTG1YdnLO19sm-DXW6Sr-2" value="+ uuid: str" style="text;align=left;verticalAlign=top;spacingLeft=4;spacingRight=4;overflow=hidden;rotatable=0;points=[[0,0.5],[1,0.5]];portConstraint=eastwest;" parent="tTG1YdnLO19sm-DXW6Sr-1" vertex="1"><mxGeometry y="26" width="210" height="26" as="geometry"/></mxCell><mxCell id="GELBYTK14ATQAXbvME1C-6" value="+ owner: User" style="text;align=left;verticalAlign=top;spacingLeft=4;spacingRight=4;overflow=hidden;rotatable=0;points=[[0,0.5],[1,0.5]];portConstraint=eastwest;" parent="tTG1YdnLO19sm-DXW6Sr-1" vertex="1"><mxGeometry y="52" width="210" height="26" as="geometry"/></mxCell><mxCell id="tTG1YdnLO19sm-DXW6Sr-3" value="+ brandName: str" style="text;align=left;verticalAlign=top;spacingLeft=4;spacingRight=4;overflow=hidden;rotatable=0;points=[[0,0.5],[1,0.5]];portConstraint=eastwest;rounded=0;shadow=0;html=0;" parent="tTG1YdnLO19sm-DXW6Sr-1" vertex="1"><mxGeometry y="78" width="210" height="26" as="geometry"/></mxCell><mxCell id="tTG1YdnLO19sm-DXW6Sr-4" value="+ modelName: str" style="text;align=left;verticalAlign=top;spacingLeft=4;spacingRight=4;overflow=hidden;rotatable=0;points=[[0,0.5],[1,0.5]];portConstraint=eastwest;rounded=0;shadow=0;html=0;" parent="tTG1YdnLO19sm-DXW6Sr-1" vertex="1"><mxGeometry y="104" width="210" height="26" as="geometry"/></mxCell><mxCell id="tTG1YdnLO19sm-DXW6Sr-5" value="+ licensePlate: str" style="text;align=left;verticalAlign=top;spacingLeft=4;spacingRight=4;overflow=hidden;rotatable=0;points=[[0,0.5],[1,0.5]];portConstraint=eastwest;rounded=0;shadow=0;html=0;" parent="tTG1YdnLO19sm-DXW6Sr-1" vertex="1"><mxGeometry y="130" width="210" height="26" as="geometry"/></mxCell><mxCell id="tTG1YdnLO19sm-DXW6Sr-6" value="+ color: str" style="text;align=left;verticalAlign=top;spacingLeft=4;spacingRight=4;overflow=hidden;rotatable=0;points=[[0,0.5],[1,0.5]];portConstraint=eastwest;rounded=0;shadow=0;html=0;" parent="tTG1YdnLO19sm-DXW6Sr-1" vertex="1"><mxGeometry y="156" width="210" height="26" as="geometry"/></mxCell><mxCell id="tTG1YdnLO19sm-DXW6Sr-7" value="+ fuelType: FuelType" style="text;align=left;verticalAlign=top;spacingLeft=4;spacingRight=4;overflow=hidden;rotatable=0;points=[[0,0.5],[1,0.5]];portConstraint=eastwest;rounded=0;shadow=0;html=0;" parent="tTG1YdnLO19sm-DXW6Sr-1" vertex="1"><mxGeometry y="182" width="210" height="26" as="geometry"/></mxCell><mxCell id="tTG1YdnLO19sm-DXW6Sr-8" value="+ ratePerHoude: int" style="text;align=left;verticalAlign=top;spacingLeft=4;spacingRight=4;overflow=hidden;rotatable=0;points=[[0,0.5],[1,0.5]];portConstraint=eastwest;rounded=0;shadow=0;html=0;" parent="tTG1YdnLO19sm-DXW6Sr-1" vertex="1"><mxGeometry y="208" width="210" height="26" as="geometry"/></mxCell><mxCell id="tTG1YdnLO19sm-DXW6Sr-9" value="+ status: Status" style="text;align=left;verticalAlign=top;spacingLeft=4;spacingRight=4;overflow=hidden;rotatable=0;points=[[0,0.5],[1,0.5]];portConstraint=eastwest;rounded=0;shadow=0;html=0;" parent="tTG1YdnLO19sm-DXW6Sr-1" vertex="1"><mxGeometry y="234" width="210" height="26" as="geometry"/></mxCell><mxCell id="GELBYTK14ATQAXbvME1C-1" value="Photo" style="swimlane;fontStyle=1;align=center;verticalAlign=top;childLayout=stackLayout;horizontal=1;startSize=26;horizontalStack=0;resizeParent=1;resizeLast=0;collapsible=1;marginBottom=0;rounded=0;shadow=0;strokeWidth=1;" parent="1" vertex="1"><mxGeometry x="165" y="650" width="175" height="130" as="geometry"><mxRectangle x="130" y="380" width="160" height="26" as="alternateBounds"/></mxGeometry></mxCell><mxCell id="GELBYTK14ATQAXbvME1C-2" value="+ uuid: str" style="text;align=left;verticalAlign=top;spacingLeft=4;spacingRight=4;overflow=hidden;rotatable=0;points=[[0,0.5],[1,0.5]];portConstraint=eastwest;" parent="GELBYTK14ATQAXbvME1C-1" vertex="1"><mxGeometry y="26" width="175" height="26" as="geometry"/></mxCell><mxCell id="GELBYTK14ATQAXbvME1C-8" value="+ car: Car" style="text;align=left;verticalAlign=top;spacingLeft=4;spacingRight=4;overflow=hidden;rotatable=0;points=[[0,0.5],[1,0.5]];portConstraint=eastwest;rounded=0;shadow=0;html=0;" parent="GELBYTK14ATQAXbvME1C-1" vertex="1"><mxGeometry y="52" width="175" height="26" as="geometry"/></mxCell><mxCell id="GELBYTK14ATQAXbvME1C-3" value="+ index: int" style="text;align=left;verticalAlign=top;spacingLeft=4;spacingRight=4;overflow=hidden;rotatable=0;points=[[0,0.5],[1,0.5]];portConstraint=eastwest;rounded=0;shadow=0;html=0;" parent="GELBYTK14ATQAXbvME1C-1" vertex="1"><mxGeometry y="78" width="175" height="26" as="geometry"/></mxCell><mxCell id="GELBYTK14ATQAXbvME1C-4" value="+ filePath: str" style="text;align=left;verticalAlign=top;spacingLeft=4;spacingRight=4;overflow=hidden;rotatable=0;points=[[0,0.5],[1,0.5]];portConstraint=eastwest;rounded=0;shadow=0;html=0;" parent="GELBYTK14ATQAXbvME1C-1" vertex="1"><mxGeometry y="104" width="175" height="26" as="geometry"/></mxCell><mxCell id="GELBYTK14ATQAXbvME1C-5" style="edgeStyle=orthogonalEdgeStyle;rounded=0;orthogonalLoop=1;jettySize=auto;html=1;entryX=0.5;entryY=0;entryDx=0;entryDy=0;" parent="1" source="JZjeRbwG5Vq-8LtE4GoN-2" target="tTG1YdnLO19sm-DXW6Sr-1" edge="1"><mxGeometry relative="1" as="geometry"/></mxCell><mxCell id="GELBYTK14ATQAXbvME1C-7" style="edgeStyle=orthogonalEdgeStyle;rounded=0;orthogonalLoop=1;jettySize=auto;html=1;entryX=0.503;entryY=0.996;entryDx=0;entryDy=0;entryPerimeter=0;" parent="1" source="GELBYTK14ATQAXbvME1C-6" target="zPbbqET0IFVI--2YhtGD-2" edge="1"><mxGeometry relative="1" as="geometry"><mxPoint x="231" y="540" as="targetPoint"/></mxGeometry></mxCell><mxCell id="GELBYTK14ATQAXbvME1C-9" style="edgeStyle=orthogonalEdgeStyle;rounded=0;orthogonalLoop=1;jettySize=auto;html=1;entryX=0;entryY=0.5;entryDx=0;entryDy=0;" parent="1" source="GELBYTK14ATQAXbvME1C-8" target="tTG1YdnLO19sm-DXW6Sr-4" edge="1"><mxGeometry relative="1" as="geometry"/></mxCell></root></mxGraphModel></diagram><diagram name="ERD" id="YxPLpCwe46_srvxLmMda">&#xa;    <mxGraphModel grid="0" page="0" gridSize="10" guides="1" tooltips="1" connect="1" arrows="1" fold="1" pageScale="1" pageWidth="827" pageHeight="1169" math="0" shadow="0">&#xa;      <root>&#xa;        <mxCell id="eHEStgPysliEP_XFdmOm-0"/>&#xa;        <mxCell id="eHEStgPysliEP_XFdmOm-1" parent="eHEStgPysliEP_XFdmOm-0"/>&#xa;        <mxCell id="cwxIfgcEZymbcGFHqmxq-0" value="users" style="shape=table;startSize=30;container=1;collapsible=1;childLayout=tableLayout;fixedRows=1;rowLines=0;fontStyle=1;align=center;resizeLast=1;html=1;" vertex="1" parent="eHEStgPysliEP_XFdmOm-1">&#xa;          <mxGeometry x="91" y="185" width="180" height="390" as="geometry"/>&#xa;        </mxCell>&#xa;        <mxCell id="cwxIfgcEZymbcGFHqmxq-1" value="" style="shape=tableRow;horizontal=0;startSize=0;swimlaneHead=0;swimlaneBody=0;fillColor=none;collapsible=0;dropTarget=0;points=[[0,0.5],[1,0.5]];portConstraint=eastwest;top=0;left=0;right=0;bottom=1;" vertex="1" parent="cwxIfgcEZymbcGFHqmxq-0">&#xa;          <mxGeometry y="30" width="180" height="30" as="geometry"/>&#xa;        </mxCell>&#xa;        <mxCell id="cwxIfgcEZymbcGFHqmxq-2" value="PK" style="shape=partialRectangle;connectable=0;fillColor=none;top=0;left=0;bottom=0;right=0;fontStyle=1;overflow=hidden;whiteSpace=wrap;html=1;" vertex="1" parent="cwxIfgcEZymbcGFHqmxq-1">&#xa;          <mxGeometry width="30" height="30" as="geometry">&#xa;            <mxRectangle width="30" height="30" as="alternateBounds"/>&#xa;          </mxGeometry>&#xa;        </mxCell>&#xa;        <mxCell id="cwxIfgcEZymbcGFHqmxq-3" value="uuid" style="shape=partialRectangle;connectable=0;fillColor=none;top=0;left=0;bottom=0;right=0;align=left;spacingLeft=6;fontStyle=5;overflow=hidden;whiteSpace=wrap;html=1;" vertex="1" parent="cwxIfgcEZymbcGFHqmxq-1">&#xa;          <mxGeometry x="30" width="150" height="30" as="geometry">&#xa;            <mxRectangle width="150" height="30" as="alternateBounds"/>&#xa;          </mxGeometry>&#xa;        </mxCell>&#xa;        <mxCell id="cwxIfgcEZymbcGFHqmxq-4" value="" style="shape=tableRow;horizontal=0;startSize=0;swimlaneHead=0;swimlaneBody=0;fillColor=none;collapsible=0;dropTarget=0;points=[[0,0.5],[1,0.5]];portConstraint=eastwest;top=0;left=0;right=0;bottom=0;" vertex="1" parent="cwxIfgcEZymbcGFHqmxq-0">&#xa;          <mxGeometry y="60" width="180" height="30" as="geometry"/>&#xa;        </mxCell>&#xa;        <mxCell id="cwxIfgcEZymbcGFHqmxq-5" value="" style="shape=partialRectangle;connectable=0;fillColor=none;top=0;left=0;bottom=0;right=0;editable=1;overflow=hidden;whiteSpace=wrap;html=1;" vertex="1" parent="cwxIfgcEZymbcGFHqmxq-4">&#xa;          <mxGeometry width="30" height="30" as="geometry">&#xa;            <mxRectangle width="30" height="30" as="alternateBounds"/>&#xa;          </mxGeometry>&#xa;        </mxCell>&#xa;        <mxCell id="cwxIfgcEZymbcGFHqmxq-6" value="first_name" style="shape=partialRectangle;connectable=0;fillColor=none;top=0;left=0;bottom=0;right=0;align=left;spacingLeft=6;overflow=hidden;whiteSpace=wrap;html=1;" vertex="1" parent="cwxIfgcEZymbcGFHqmxq-4">&#xa;          <mxGeometry x="30" width="150" height="30" as="geometry">&#xa;            <mxRectangle width="150" height="30" as="alternateBounds"/>&#xa;          </mxGeometry>&#xa;        </mxCell>&#xa;        <mxCell id="cwxIfgcEZymbcGFHqmxq-7" value="" style="shape=tableRow;horizontal=0;startSize=0;swimlaneHead=0;swimlaneBody=0;fillColor=none;collapsible=0;dropTarget=0;points=[[0,0.5],[1,0.5]];portConstraint=eastwest;top=0;left=0;right=0;bottom=0;" vertex="1" parent="cwxIfgcEZymbcGFHqmxq-0">&#xa;          <mxGeometry y="90" width="180" height="30" as="geometry"/>&#xa;        </mxCell>&#xa;        <mxCell id="cwxIfgcEZymbcGFHqmxq-8" value="" style="shape=partialRectangle;connectable=0;fillColor=none;top=0;left=0;bottom=0;right=0;editable=1;overflow=hidden;whiteSpace=wrap;html=1;" vertex="1" parent="cwxIfgcEZymbcGFHqmxq-7">&#xa;          <mxGeometry width="30" height="30" as="geometry">&#xa;            <mxRectangle width="30" height="30" as="alternateBounds"/>&#xa;          </mxGeometry>&#xa;        </mxCell>&#xa;        <mxCell id="cwxIfgcEZymbcGFHqmxq-9" value="last_name" style="shape=partialRectangle;connectable=0;fillColor=none;top=0;left=0;bottom=0;right=0;align=left;spacingLeft=6;overflow=hidden;whiteSpace=wrap;html=1;" vertex="1" parent="cwxIfgcEZymbcGFHqmxq-7">&#xa;          <mxGeometry x="30" width="150" height="30" as="geometry">&#xa;            <mxRectangle width="150" height="30" as="alternateBounds"/>&#xa;          </mxGeometry>&#xa;        </mxCell>&#xa;        <mxCell id="cwxIfgcEZymbcGFHqmxq-10" value="" style="shape=tableRow;horizontal=0;startSize=0;swimlaneHead=0;swimlaneBody=0;fillColor=none;collapsible=0;dropTarget=0;points=[[0,0.5],[1,0.5]];portConstraint=eastwest;top=0;left=0;right=0;bottom=0;" vertex="1" parent="cwxIfgcEZymbcGFHqmxq-0">&#xa;          <mxGeometry y="120" width="180" height="30" as="geometry"/>&#xa;        </mxCell>&#xa;        <mxCell id="cwxIfgcEZymbcGFHqmxq-11" value="" style="shape=partialRectangle;connectable=0;fillColor=none;top=0;left=0;bottom=0;right=0;editable=1;overflow=hidden;whiteSpace=wrap;html=1;" vertex="1" parent="cwxIfgcEZymbcGFHqmxq-10">&#xa;          <mxGeometry width="30" height="30" as="geometry">&#xa;            <mxRectangle width="30" height="30" as="alternateBounds"/>&#xa;          </mxGeometry>&#xa;        </mxCell>&#xa;        <mxCell id="cwxIfgcEZymbcGFHqmxq-12" value="email_address" style="shape=partialRectangle;connectable=0;fillColor=none;top=0;left=0;bottom=0;right=0;align=left;spacingLeft=6;overflow=hidden;whiteSpace=wrap;html=1;" vertex="1" parent="cwxIfgcEZymbcGFHqmxq-10">&#xa;          <mxGeometry x="30" width="150" height="30" as="geometry">&#xa;            <mxRectangle width="150" height="30" as="alternateBounds"/>&#xa;          </mxGeometry>&#xa;        </mxCell>&#xa;        <mxCell id="cwxIfgcEZymbcGFHqmxq-17" value="" style="shape=tableRow;horizontal=0;startSize=0;swimlaneHead=0;swimlaneBody=0;fillColor=none;collapsible=0;dropTarget=0;points=[[0,0.5],[1,0.5]];portConstraint=eastwest;top=0;left=0;right=0;bottom=0;" vertex="1" parent="cwxIfgcEZymbcGFHqmxq-0">&#xa;          <mxGeometry y="150" width="180" height="30" as="geometry"/>&#xa;        </mxCell>&#xa;        <mxCell id="cwxIfgcEZymbcGFHqmxq-18" value="" style="shape=partialRectangle;connectable=0;fillColor=none;top=0;left=0;bottom=0;right=0;editable=1;overflow=hidden;" vertex="1" parent="cwxIfgcEZymbcGFHqmxq-17">&#xa;          <mxGeometry width="30" height="30" as="geometry">&#xa;            <mxRectangle width="30" height="30" as="alternateBounds"/>&#xa;          </mxGeometry>&#xa;        </mxCell>&#xa;        <mxCell id="cwxIfgcEZymbcGFHqmxq-19" value="password" style="shape=partialRectangle;connectable=0;fillColor=none;top=0;left=0;bottom=0;right=0;align=left;spacingLeft=6;overflow=hidden;" vertex="1" parent="cwxIfgcEZymbcGFHqmxq-17">&#xa;          <mxGeometry x="30" width="150" height="30" as="geometry">&#xa;            <mxRectangle width="150" height="30" as="alternateBounds"/>&#xa;          </mxGeometry>&#xa;        </mxCell>&#xa;        <mxCell id="cwxIfgcEZymbcGFHqmxq-23" value="" style="shape=tableRow;horizontal=0;startSize=0;swimlaneHead=0;swimlaneBody=0;fillColor=none;collapsible=0;dropTarget=0;points=[[0,0.5],[1,0.5]];portConstraint=eastwest;top=0;left=0;right=0;bottom=0;" vertex="1" parent="cwxIfgcEZymbcGFHqmxq-0">&#xa;          <mxGeometry y="180" width="180" height="30" as="geometry"/>&#xa;        </mxCell>&#xa;        <mxCell id="cwxIfgcEZymbcGFHqmxq-24" value="" style="shape=partialRectangle;connectable=0;fillColor=none;top=0;left=0;bottom=0;right=0;editable=1;overflow=hidden;" vertex="1" parent="cwxIfgcEZymbcGFHqmxq-23">&#xa;          <mxGeometry width="30" height="30" as="geometry">&#xa;            <mxRectangle width="30" height="30" as="alternateBounds"/>&#xa;          </mxGeometry>&#xa;        </mxCell>&#xa;        <mxCell id="cwxIfgcEZymbcGFHqmxq-25" value="street_name" style="shape=partialRectangle;connectable=0;fillColor=none;top=0;left=0;bottom=0;right=0;align=left;spacingLeft=6;overflow=hidden;" vertex="1" parent="cwxIfgcEZymbcGFHqmxq-23">&#xa;          <mxGeometry x="30" width="150" height="30" as="geometry">&#xa;            <mxRectangle width="150" height="30" as="alternateBounds"/>&#xa;          </mxGeometry>&#xa;        </mxCell>&#xa;        <mxCell id="cwxIfgcEZymbcGFHqmxq-26" value="" style="shape=tableRow;horizontal=0;startSize=0;swimlaneHead=0;swimlaneBody=0;fillColor=none;collapsible=0;dropTarget=0;points=[[0,0.5],[1,0.5]];portConstraint=eastwest;top=0;left=0;right=0;bottom=0;" vertex="1" parent="cwxIfgcEZymbcGFHqmxq-0">&#xa;          <mxGeometry y="210" width="180" height="30" as="geometry"/>&#xa;        </mxCell>&#xa;        <mxCell id="cwxIfgcEZymbcGFHqmxq-27" value="" style="shape=partialRectangle;connectable=0;fillColor=none;top=0;left=0;bottom=0;right=0;editable=1;overflow=hidden;" vertex="1" parent="cwxIfgcEZymbcGFHqmxq-26">&#xa;          <mxGeometry width="30" height="30" as="geometry">&#xa;            <mxRectangle width="30" height="30" as="alternateBounds"/>&#xa;          </mxGeometry>&#xa;        </mxCell>&#xa;        <mxCell id="cwxIfgcEZymbcGFHqmxq-28" value="house_number" style="shape=partialRectangle;connectable=0;fillColor=none;top=0;left=0;bottom=0;right=0;align=left;spacingLeft=6;overflow=hidden;" vertex="1" parent="cwxIfgcEZymbcGFHqmxq-26">&#xa;          <mxGeometry x="30" width="150" height="30" as="geometry">&#xa;            <mxRectangle width="150" height="30" as="alternateBounds"/>&#xa;          </mxGeometry>&#xa;        </mxCell>&#xa;        <mxCell id="cwxIfgcEZymbcGFHqmxq-29" value="" style="shape=tableRow;horizontal=0;startSize=0;swimlaneHead=0;swimlaneBody=0;fillColor=none;collapsible=0;dropTarget=0;points=[[0,0.5],[1,0.5]];portConstraint=eastwest;top=0;left=0;right=0;bottom=0;" vertex="1" parent="cwxIfgcEZymbcGFHqmxq-0">&#xa;          <mxGeometry y="240" width="180" height="30" as="geometry"/>&#xa;        </mxCell>&#xa;        <mxCell id="cwxIfgcEZymbcGFHqmxq-30" value="" style="shape=partialRectangle;connectable=0;fillColor=none;top=0;left=0;bottom=0;right=0;editable=1;overflow=hidden;" vertex="1" parent="cwxIfgcEZymbcGFHqmxq-29">&#xa;          <mxGeometry width="30" height="30" as="geometry">&#xa;            <mxRectangle width="30" height="30" as="alternateBounds"/>&#xa;          </mxGeometry>&#xa;        </mxCell>&#xa;        <mxCell id="cwxIfgcEZymbcGFHqmxq-31" value="postal_code" style="shape=partialRectangle;connectable=0;fillColor=none;top=0;left=0;bottom=0;right=0;align=left;spacingLeft=6;overflow=hidden;" vertex="1" parent="cwxIfgcEZymbcGFHqmxq-29">&#xa;          <mxGeometry x="30" width="150" height="30" as="geometry">&#xa;            <mxRectangle width="150" height="30" as="alternateBounds"/>&#xa;          </mxGeometry>&#xa;        </mxCell>&#xa;        <mxCell id="cwxIfgcEZymbcGFHqmxq-32" value="" style="shape=tableRow;horizontal=0;startSize=0;swimlaneHead=0;swimlaneBody=0;fillColor=none;collapsible=0;dropTarget=0;points=[[0,0.5],[1,0.5]];portConstraint=eastwest;top=0;left=0;right=0;bottom=0;" vertex="1" parent="cwxIfgcEZymbcGFHqmxq-0">&#xa;          <mxGeometry y="270" width="180" height="30" as="geometry"/>&#xa;        </mxCell>&#xa;        <mxCell id="cwxIfgcEZymbcGFHqmxq-33" value="" style="shape=partialRectangle;connectable=0;fillColor=none;top=0;left=0;bottom=0;right=0;editable=1;overflow=hidden;" vertex="1" parent="cwxIfgcEZymbcGFHqmxq-32">&#xa;          <mxGeometry width="30" height="30" as="geometry">&#xa;            <mxRectangle width="30" height="30" as="alternateBounds"/>&#xa;          </mxGeometry>&#xa;        </mxCell>&#xa;        <mxCell id="cwxIfgcEZymbcGFHqmxq-34" value="city" style="shape=partialRectangle;connectable=0;fillColor=none;top=0;left=0;bottom=0;right=0;align=left;spacingLeft=6;overflow=hidden;" vertex="1" parent="cwxIfgcEZymbcGFHqmxq-32">&#xa;          <mxGeometry x="30" width="150" height="30" as="geometry">&#xa;            <mxRectangle width="150" height="30" as="alternateBounds"/>&#xa;          </mxGeometry>&#xa;        </mxCell>&#xa;        <mxCell id="cwxIfgcEZymbcGFHqmxq-35" value="" style="shape=tableRow;horizontal=0;startSize=0;swimlaneHead=0;swimlaneBody=0;fillColor=none;collapsible=0;dropTarget=0;points=[[0,0.5],[1,0.5]];portConstraint=eastwest;top=0;left=0;right=0;bottom=0;" vertex="1" parent="cwxIfgcEZymbcGFHqmxq-0">&#xa;          <mxGeometry y="300" width="180" height="30" as="geometry"/>&#xa;        </mxCell>&#xa;        <mxCell id="cwxIfgcEZymbcGFHqmxq-36" value="" style="shape=partialRectangle;connectable=0;fillColor=none;top=0;left=0;bottom=0;right=0;editable=1;overflow=hidden;" vertex="1" parent="cwxIfgcEZymbcGFHqmxq-35">&#xa;          <mxGeometry width="30" height="30" as="geometry">&#xa;            <mxRectangle width="30" height="30" as="alternateBounds"/>&#xa;          </mxGeometry>&#xa;        </mxCell>&#xa;        <mxCell id="cwxIfgcEZymbcGFHqmxq-37" value="country" style="shape=partialRectangle;connectable=0;fillColor=none;top=0;left=0;bottom=0;right=0;align=left;spacingLeft=6;overflow=hidden;" vertex="1" parent="cwxIfgcEZymbcGFHqmxq-35">&#xa;          <mxGeometry x="30" width="150" height="30" as="geometry">&#xa;            <mxRectangle width="150" height="30" as="alternateBounds"/>&#xa;          </mxGeometry>&#xa;        </mxCell>&#xa;        <mxCell id="GmB8AionTNrCYYllaXC6-0" value="" style="shape=tableRow;horizontal=0;startSize=0;swimlaneHead=0;swimlaneBody=0;fillColor=none;collapsible=0;dropTarget=0;points=[[0,0.5],[1,0.5]];portConstraint=eastwest;top=0;left=0;right=0;bottom=0;" vertex="1" parent="cwxIfgcEZymbcGFHqmxq-0">&#xa;          <mxGeometry y="330" width="180" height="30" as="geometry"/>&#xa;        </mxCell>&#xa;        <mxCell id="GmB8AionTNrCYYllaXC6-1" value="" style="shape=partialRectangle;connectable=0;fillColor=none;top=0;left=0;bottom=0;right=0;editable=1;overflow=hidden;" vertex="1" parent="GmB8AionTNrCYYllaXC6-0">&#xa;          <mxGeometry width="30" height="30" as="geometry">&#xa;            <mxRectangle width="30" height="30" as="alternateBounds"/>&#xa;          </mxGeometry>&#xa;        </mxCell>&#xa;        <mxCell id="GmB8AionTNrCYYllaXC6-2" value="latitude" style="shape=partialRectangle;connectable=0;fillColor=none;top=0;left=0;bottom=0;right=0;align=left;spacingLeft=6;overflow=hidden;" vertex="1" parent="GmB8AionTNrCYYllaXC6-0">&#xa;          <mxGeometry x="30" width="150" height="30" as="geometry">&#xa;            <mxRectangle width="150" height="30" as="alternateBounds"/>&#xa;          </mxGeometry>&#xa;        </mxCell>&#xa;        <mxCell id="GmB8AionTNrCYYllaXC6-4" value="" style="shape=tableRow;horizontal=0;startSize=0;swimlaneHead=0;swimlaneBody=0;fillColor=none;collapsible=0;dropTarget=0;points=[[0,0.5],[1,0.5]];portConstraint=eastwest;top=0;left=0;right=0;bottom=0;" vertex="1" parent="cwxIfgcEZymbcGFHqmxq-0">&#xa;          <mxGeometry y="360" width="180" height="30" as="geometry"/>&#xa;        </mxCell>&#xa;        <mxCell id="GmB8AionTNrCYYllaXC6-5" value="" style="shape=partialRectangle;connectable=0;fillColor=none;top=0;left=0;bottom=0;right=0;editable=1;overflow=hidden;" vertex="1" parent="GmB8AionTNrCYYllaXC6-4">&#xa;          <mxGeometry width="30" height="30" as="geometry">&#xa;            <mxRectangle width="30" height="30" as="alternateBounds"/>&#xa;          </mxGeometry>&#xa;        </mxCell>&#xa;        <mxCell id="GmB8AionTNrCYYllaXC6-6" value="longitude" style="shape=partialRectangle;connectable=0;fillColor=none;top=0;left=0;bottom=0;right=0;align=left;spacingLeft=6;overflow=hidden;" vertex="1" parent="GmB8AionTNrCYYllaXC6-4">&#xa;          <mxGeometry x="30" width="150" height="30" as="geometry">&#xa;            <mxRectangle width="150" height="30" as="alternateBounds"/>&#xa;          </mxGeometry>&#xa;        </mxCell>&#xa;        <mxCell id="cwxIfgcEZymbcGFHqmxq-51" value="reservations" style="shape=table;startSize=30;container=1;collapsible=1;childLayout=tableLayout;fixedRows=1;rowLines=0;fontStyle=1;align=center;resizeLast=1;html=1;" vertex="1" parent="eHEStgPysliEP_XFdmOm-1">&#xa;          <mxGeometry x="404" y="230" width="180" height="240" as="geometry"/>&#xa;        </mxCell>&#xa;        <mxCell id="cwxIfgcEZymbcGFHqmxq-52" value="" style="shape=tableRow;horizontal=0;startSize=0;swimlaneHead=0;swimlaneBody=0;fillColor=none;collapsible=0;dropTarget=0;points=[[0,0.5],[1,0.5]];portConstraint=eastwest;top=0;left=0;right=0;bottom=1;" vertex="1" parent="cwxIfgcEZymbcGFHqmxq-51">&#xa;          <mxGeometry y="30" width="180" height="30" as="geometry"/>&#xa;        </mxCell>&#xa;        <mxCell id="cwxIfgcEZymbcGFHqmxq-53" value="PK" style="shape=partialRectangle;connectable=0;fillColor=none;top=0;left=0;bottom=0;right=0;fontStyle=1;overflow=hidden;whiteSpace=wrap;html=1;" vertex="1" parent="cwxIfgcEZymbcGFHqmxq-52">&#xa;          <mxGeometry width="30" height="30" as="geometry">&#xa;            <mxRectangle width="30" height="30" as="alternateBounds"/>&#xa;          </mxGeometry>&#xa;        </mxCell>&#xa;        <mxCell id="cwxIfgcEZymbcGFHqmxq-54" value="uuid" style="shape=partialRectangle;connectable=0;fillColor=none;top=0;left=0;bottom=0;right=0;align=left;spacingLeft=6;fontStyle=5;overflow=hidden;whiteSpace=wrap;html=1;" vertex="1" parent="cwxIfgcEZymbcGFHqmxq-52">&#xa;          <mxGeometry x="30" width="150" height="30" as="geometry">&#xa;            <mxRectangle width="150" height="30" as="alternateBounds"/>&#xa;          </mxGeometry>&#xa;        </mxCell>&#xa;        <mxCell id="cwxIfgcEZymbcGFHqmxq-55" value="" style="shape=tableRow;horizontal=0;startSize=0;swimlaneHead=0;swimlaneBody=0;fillColor=none;collapsible=0;dropTarget=0;points=[[0,0.5],[1,0.5]];portConstraint=eastwest;top=0;left=0;right=0;bottom=0;" vertex="1" parent="cwxIfgcEZymbcGFHqmxq-51">&#xa;          <mxGeometry y="60" width="180" height="30" as="geometry"/>&#xa;        </mxCell>&#xa;        <mxCell id="cwxIfgcEZymbcGFHqmxq-56" value="FK" style="shape=partialRectangle;connectable=0;fillColor=none;top=0;left=0;bottom=0;right=0;editable=1;overflow=hidden;whiteSpace=wrap;html=1;fontStyle=0" vertex="1" parent="cwxIfgcEZymbcGFHqmxq-55">&#xa;          <mxGeometry width="30" height="30" as="geometry">&#xa;            <mxRectangle width="30" height="30" as="alternateBounds"/>&#xa;          </mxGeometry>&#xa;        </mxCell>&#xa;        <mxCell id="cwxIfgcEZymbcGFHqmxq-57" value="rentor_uuid" style="shape=partialRectangle;connectable=0;fillColor=none;top=0;left=0;bottom=0;right=0;align=left;spacingLeft=6;overflow=hidden;whiteSpace=wrap;html=1;" vertex="1" parent="cwxIfgcEZymbcGFHqmxq-55">&#xa;          <mxGeometry x="30" width="150" height="30" as="geometry">&#xa;            <mxRectangle width="150" height="30" as="alternateBounds"/>&#xa;          </mxGeometry>&#xa;        </mxCell>&#xa;        <mxCell id="cwxIfgcEZymbcGFHqmxq-58" value="" style="shape=tableRow;horizontal=0;startSize=0;swimlaneHead=0;swimlaneBody=0;fillColor=none;collapsible=0;dropTarget=0;points=[[0,0.5],[1,0.5]];portConstraint=eastwest;top=0;left=0;right=0;bottom=0;" vertex="1" parent="cwxIfgcEZymbcGFHqmxq-51">&#xa;          <mxGeometry y="90" width="180" height="30" as="geometry"/>&#xa;        </mxCell>&#xa;        <mxCell id="cwxIfgcEZymbcGFHqmxq-59" value="FK" style="shape=partialRectangle;connectable=0;fillColor=none;top=0;left=0;bottom=0;right=0;editable=1;overflow=hidden;whiteSpace=wrap;html=1;fontStyle=0" vertex="1" parent="cwxIfgcEZymbcGFHqmxq-58">&#xa;          <mxGeometry width="30" height="30" as="geometry">&#xa;            <mxRectangle width="30" height="30" as="alternateBounds"/>&#xa;          </mxGeometry>&#xa;        </mxCell>&#xa;        <mxCell id="cwxIfgcEZymbcGFHqmxq-60" value="rentee_uuid" style="shape=partialRectangle;connectable=0;fillColor=none;top=0;left=0;bottom=0;right=0;align=left;spacingLeft=6;overflow=hidden;whiteSpace=wrap;html=1;" vertex="1" parent="cwxIfgcEZymbcGFHqmxq-58">&#xa;          <mxGeometry x="30" width="150" height="30" as="geometry">&#xa;            <mxRectangle width="150" height="30" as="alternateBounds"/>&#xa;          </mxGeometry>&#xa;        </mxCell>&#xa;        <mxCell id="7Tlc5VvbqHmBsngcXw7w-3" value="" style="shape=tableRow;horizontal=0;startSize=0;swimlaneHead=0;swimlaneBody=0;fillColor=none;collapsible=0;dropTarget=0;points=[[0,0.5],[1,0.5]];portConstraint=eastwest;top=0;left=0;right=0;bottom=0;" vertex="1" parent="cwxIfgcEZymbcGFHqmxq-51">&#xa;          <mxGeometry y="120" width="180" height="30" as="geometry"/>&#xa;        </mxCell>&#xa;        <mxCell id="7Tlc5VvbqHmBsngcXw7w-4" value="FK" style="shape=partialRectangle;connectable=0;fillColor=none;top=0;left=0;bottom=0;right=0;editable=1;overflow=hidden;fontStyle=0" vertex="1" parent="7Tlc5VvbqHmBsngcXw7w-3">&#xa;          <mxGeometry width="30" height="30" as="geometry">&#xa;            <mxRectangle width="30" height="30" as="alternateBounds"/>&#xa;          </mxGeometry>&#xa;        </mxCell>&#xa;        <mxCell id="7Tlc5VvbqHmBsngcXw7w-5" value="rented_car_uuid" style="shape=partialRectangle;connectable=0;fillColor=none;top=0;left=0;bottom=0;right=0;align=left;spacingLeft=6;overflow=hidden;" vertex="1" parent="7Tlc5VvbqHmBsngcXw7w-3">&#xa;          <mxGeometry x="30" width="150" height="30" as="geometry">&#xa;            <mxRectangle width="150" height="30" as="alternateBounds"/>&#xa;          </mxGeometry>&#xa;        </mxCell>&#xa;        <mxCell id="cwxIfgcEZymbcGFHqmxq-61" value="" style="shape=tableRow;horizontal=0;startSize=0;swimlaneHead=0;swimlaneBody=0;fillColor=none;collapsible=0;dropTarget=0;points=[[0,0.5],[1,0.5]];portConstraint=eastwest;top=0;left=0;right=0;bottom=0;" vertex="1" parent="cwxIfgcEZymbcGFHqmxq-51">&#xa;          <mxGeometry y="150" width="180" height="30" as="geometry"/>&#xa;        </mxCell>&#xa;        <mxCell id="cwxIfgcEZymbcGFHqmxq-62" value="" style="shape=partialRectangle;connectable=0;fillColor=none;top=0;left=0;bottom=0;right=0;editable=1;overflow=hidden;whiteSpace=wrap;html=1;" vertex="1" parent="cwxIfgcEZymbcGFHqmxq-61">&#xa;          <mxGeometry width="30" height="30" as="geometry">&#xa;            <mxRectangle width="30" height="30" as="alternateBounds"/>&#xa;          </mxGeometry>&#xa;        </mxCell>&#xa;        <mxCell id="cwxIfgcEZymbcGFHqmxq-63" value="start_datetime_utc" style="shape=partialRectangle;connectable=0;fillColor=none;top=0;left=0;bottom=0;right=0;align=left;spacingLeft=6;overflow=hidden;whiteSpace=wrap;html=1;" vertex="1" parent="cwxIfgcEZymbcGFHqmxq-61">&#xa;          <mxGeometry x="30" width="150" height="30" as="geometry">&#xa;            <mxRectangle width="150" height="30" as="alternateBounds"/>&#xa;          </mxGeometry>&#xa;        </mxCell>&#xa;        <mxCell id="7Tlc5VvbqHmBsngcXw7w-0" value="" style="shape=tableRow;horizontal=0;startSize=0;swimlaneHead=0;swimlaneBody=0;fillColor=none;collapsible=0;dropTarget=0;points=[[0,0.5],[1,0.5]];portConstraint=eastwest;top=0;left=0;right=0;bottom=0;" vertex="1" parent="cwxIfgcEZymbcGFHqmxq-51">&#xa;          <mxGeometry y="180" width="180" height="30" as="geometry"/>&#xa;        </mxCell>&#xa;        <mxCell id="7Tlc5VvbqHmBsngcXw7w-1" value="" style="shape=partialRectangle;connectable=0;fillColor=none;top=0;left=0;bottom=0;right=0;editable=1;overflow=hidden;" vertex="1" parent="7Tlc5VvbqHmBsngcXw7w-0">&#xa;          <mxGeometry width="30" height="30" as="geometry">&#xa;            <mxRectangle width="30" height="30" as="alternateBounds"/>&#xa;          </mxGeometry>&#xa;        </mxCell>&#xa;        <mxCell id="7Tlc5VvbqHmBsngcXw7w-2" value="end_datetime_utc" style="shape=partialRectangle;connectable=0;fillColor=none;top=0;left=0;bottom=0;right=0;align=left;spacingLeft=6;overflow=hidden;" vertex="1" parent="7Tlc5VvbqHmBsngcXw7w-0">&#xa;          <mxGeometry x="30" width="150" height="30" as="geometry">&#xa;            <mxRectangle width="150" height="30" as="alternateBounds"/>&#xa;          </mxGeometry>&#xa;        </mxCell>&#xa;        <mxCell id="7Tlc5VvbqHmBsngcXw7w-6" value="" style="shape=tableRow;horizontal=0;startSize=0;swimlaneHead=0;swimlaneBody=0;fillColor=none;collapsible=0;dropTarget=0;points=[[0,0.5],[1,0.5]];portConstraint=eastwest;top=0;left=0;right=0;bottom=0;" vertex="1" parent="cwxIfgcEZymbcGFHqmxq-51">&#xa;          <mxGeometry y="210" width="180" height="30" as="geometry"/>&#xa;        </mxCell>&#xa;        <mxCell id="7Tlc5VvbqHmBsngcXw7w-7" value="" style="shape=partialRectangle;connectable=0;fillColor=none;top=0;left=0;bottom=0;right=0;editable=1;overflow=hidden;" vertex="1" parent="7Tlc5VvbqHmBsngcXw7w-6">&#xa;          <mxGeometry width="30" height="30" as="geometry">&#xa;            <mxRectangle width="30" height="30" as="alternateBounds"/>&#xa;          </mxGeometry>&#xa;        </mxCell>&#xa;        <mxCell id="7Tlc5VvbqHmBsngcXw7w-8" value="total_price" style="shape=partialRectangle;connectable=0;fillColor=none;top=0;left=0;bottom=0;right=0;align=left;spacingLeft=6;overflow=hidden;" vertex="1" parent="7Tlc5VvbqHmBsngcXw7w-6">&#xa;          <mxGeometry x="30" width="150" height="30" as="geometry">&#xa;            <mxRectangle width="150" height="30" as="alternateBounds"/>&#xa;          </mxGeometry>&#xa;        </mxCell>&#xa;        <mxCell id="7Tlc5VvbqHmBsngcXw7w-9" style="edgeStyle=orthogonalEdgeStyle;rounded=0;orthogonalLoop=1;jettySize=auto;html=1;entryX=1;entryY=0.5;entryDx=0;entryDy=0;" edge="1" parent="eHEStgPysliEP_XFdmOm-1" source="cwxIfgcEZymbcGFHqmxq-55" target="cwxIfgcEZymbcGFHqmxq-1">&#xa;          <mxGeometry relative="1" as="geometry">&#xa;            <Array as="points">&#xa;              <mxPoint x="362" y="305"/>&#xa;              <mxPoint x="362" y="230"/>&#xa;            </Array>&#xa;          </mxGeometry>&#xa;        </mxCell>&#xa;        <mxCell id="7Tlc5VvbqHmBsngcXw7w-10" style="edgeStyle=orthogonalEdgeStyle;rounded=0;orthogonalLoop=1;jettySize=auto;html=1;entryX=1;entryY=0.5;entryDx=0;entryDy=0;" edge="1" parent="eHEStgPysliEP_XFdmOm-1" source="cwxIfgcEZymbcGFHqmxq-58" target="cwxIfgcEZymbcGFHqmxq-1">&#xa;          <mxGeometry relative="1" as="geometry">&#xa;            <Array as="points">&#xa;              <mxPoint x="363" y="335"/>&#xa;              <mxPoint x="363" y="230"/>&#xa;            </Array>&#xa;          </mxGeometry>&#xa;        </mxCell>&#xa;        <mxCell id="7Tlc5VvbqHmBsngcXw7w-11" value="cars" style="shape=table;startSize=30;container=1;collapsible=1;childLayout=tableLayout;fixedRows=1;rowLines=0;fontStyle=1;align=center;resizeLast=1;html=1;" vertex="1" parent="eHEStgPysliEP_XFdmOm-1">&#xa;          <mxGeometry x="404" y="515" width="180" height="300" as="geometry"/>&#xa;        </mxCell>&#xa;        <mxCell id="7Tlc5VvbqHmBsngcXw7w-12" value="" style="shape=tableRow;horizontal=0;startSize=0;swimlaneHead=0;swimlaneBody=0;fillColor=none;collapsible=0;dropTarget=0;points=[[0,0.5],[1,0.5]];portConstraint=eastwest;top=0;left=0;right=0;bottom=1;" vertex="1" parent="7Tlc5VvbqHmBsngcXw7w-11">&#xa;          <mxGeometry y="30" width="180" height="30" as="geometry"/>&#xa;        </mxCell>&#xa;        <mxCell id="7Tlc5VvbqHmBsngcXw7w-13" value="PK" style="shape=partialRectangle;connectable=0;fillColor=none;top=0;left=0;bottom=0;right=0;fontStyle=1;overflow=hidden;whiteSpace=wrap;html=1;" vertex="1" parent="7Tlc5VvbqHmBsngcXw7w-12">&#xa;          <mxGeometry width="30" height="30" as="geometry">&#xa;            <mxRectangle width="30" height="30" as="alternateBounds"/>&#xa;          </mxGeometry>&#xa;        </mxCell>&#xa;        <mxCell id="7Tlc5VvbqHmBsngcXw7w-14" value="uuid" style="shape=partialRectangle;connectable=0;fillColor=none;top=0;left=0;bottom=0;right=0;align=left;spacingLeft=6;fontStyle=5;overflow=hidden;whiteSpace=wrap;html=1;" vertex="1" parent="7Tlc5VvbqHmBsngcXw7w-12">&#xa;          <mxGeometry x="30" width="150" height="30" as="geometry">&#xa;            <mxRectangle width="150" height="30" as="alternateBounds"/>&#xa;          </mxGeometry>&#xa;        </mxCell>&#xa;        <mxCell id="7Tlc5VvbqHmBsngcXw7w-15" value="" style="shape=tableRow;horizontal=0;startSize=0;swimlaneHead=0;swimlaneBody=0;fillColor=none;collapsible=0;dropTarget=0;points=[[0,0.5],[1,0.5]];portConstraint=eastwest;top=0;left=0;right=0;bottom=0;" vertex="1" parent="7Tlc5VvbqHmBsngcXw7w-11">&#xa;          <mxGeometry y="60" width="180" height="30" as="geometry"/>&#xa;        </mxCell>&#xa;        <mxCell id="7Tlc5VvbqHmBsngcXw7w-16" value="FK" style="shape=partialRectangle;connectable=0;fillColor=none;top=0;left=0;bottom=0;right=0;editable=1;overflow=hidden;whiteSpace=wrap;html=1;" vertex="1" parent="7Tlc5VvbqHmBsngcXw7w-15">&#xa;          <mxGeometry width="30" height="30" as="geometry">&#xa;            <mxRectangle width="30" height="30" as="alternateBounds"/>&#xa;          </mxGeometry>&#xa;        </mxCell>&#xa;        <mxCell id="7Tlc5VvbqHmBsngcXw7w-17" value="owner_uuid" style="shape=partialRectangle;connectable=0;fillColor=none;top=0;left=0;bottom=0;right=0;align=left;spacingLeft=6;overflow=hidden;whiteSpace=wrap;html=1;" vertex="1" parent="7Tlc5VvbqHmBsngcXw7w-15">&#xa;          <mxGeometry x="30" width="150" height="30" as="geometry">&#xa;            <mxRectangle width="150" height="30" as="alternateBounds"/>&#xa;          </mxGeometry>&#xa;        </mxCell>&#xa;        <mxCell id="7Tlc5VvbqHmBsngcXw7w-18" value="" style="shape=tableRow;horizontal=0;startSize=0;swimlaneHead=0;swimlaneBody=0;fillColor=none;collapsible=0;dropTarget=0;points=[[0,0.5],[1,0.5]];portConstraint=eastwest;top=0;left=0;right=0;bottom=0;" vertex="1" parent="7Tlc5VvbqHmBsngcXw7w-11">&#xa;          <mxGeometry y="90" width="180" height="30" as="geometry"/>&#xa;        </mxCell>&#xa;        <mxCell id="7Tlc5VvbqHmBsngcXw7w-19" value="" style="shape=partialRectangle;connectable=0;fillColor=none;top=0;left=0;bottom=0;right=0;editable=1;overflow=hidden;whiteSpace=wrap;html=1;" vertex="1" parent="7Tlc5VvbqHmBsngcXw7w-18">&#xa;          <mxGeometry width="30" height="30" as="geometry">&#xa;            <mxRectangle width="30" height="30" as="alternateBounds"/>&#xa;          </mxGeometry>&#xa;        </mxCell>&#xa;        <mxCell id="7Tlc5VvbqHmBsngcXw7w-20" value="brand_name" style="shape=partialRectangle;connectable=0;fillColor=none;top=0;left=0;bottom=0;right=0;align=left;spacingLeft=6;overflow=hidden;whiteSpace=wrap;html=1;" vertex="1" parent="7Tlc5VvbqHmBsngcXw7w-18">&#xa;          <mxGeometry x="30" width="150" height="30" as="geometry">&#xa;            <mxRectangle width="150" height="30" as="alternateBounds"/>&#xa;          </mxGeometry>&#xa;        </mxCell>&#xa;        <mxCell id="7Tlc5VvbqHmBsngcXw7w-21" value="" style="shape=tableRow;horizontal=0;startSize=0;swimlaneHead=0;swimlaneBody=0;fillColor=none;collapsible=0;dropTarget=0;points=[[0,0.5],[1,0.5]];portConstraint=eastwest;top=0;left=0;right=0;bottom=0;" vertex="1" parent="7Tlc5VvbqHmBsngcXw7w-11">&#xa;          <mxGeometry y="120" width="180" height="30" as="geometry"/>&#xa;        </mxCell>&#xa;        <mxCell id="7Tlc5VvbqHmBsngcXw7w-22" value="" style="shape=partialRectangle;connectable=0;fillColor=none;top=0;left=0;bottom=0;right=0;editable=1;overflow=hidden;whiteSpace=wrap;html=1;" vertex="1" parent="7Tlc5VvbqHmBsngcXw7w-21">&#xa;          <mxGeometry width="30" height="30" as="geometry">&#xa;            <mxRectangle width="30" height="30" as="alternateBounds"/>&#xa;          </mxGeometry>&#xa;        </mxCell>&#xa;        <mxCell id="7Tlc5VvbqHmBsngcXw7w-23" value="model_name" style="shape=partialRectangle;connectable=0;fillColor=none;top=0;left=0;bottom=0;right=0;align=left;spacingLeft=6;overflow=hidden;whiteSpace=wrap;html=1;" vertex="1" parent="7Tlc5VvbqHmBsngcXw7w-21">&#xa;          <mxGeometry x="30" width="150" height="30" as="geometry">&#xa;            <mxRectangle width="150" height="30" as="alternateBounds"/>&#xa;          </mxGeometry>&#xa;        </mxCell>&#xa;        <mxCell id="7Tlc5VvbqHmBsngcXw7w-26" value="" style="shape=tableRow;horizontal=0;startSize=0;swimlaneHead=0;swimlaneBody=0;fillColor=none;collapsible=0;dropTarget=0;points=[[0,0.5],[1,0.5]];portConstraint=eastwest;top=0;left=0;right=0;bottom=0;" vertex="1" parent="7Tlc5VvbqHmBsngcXw7w-11">&#xa;          <mxGeometry y="150" width="180" height="30" as="geometry"/>&#xa;        </mxCell>&#xa;        <mxCell id="7Tlc5VvbqHmBsngcXw7w-27" value="" style="shape=partialRectangle;connectable=0;fillColor=none;top=0;left=0;bottom=0;right=0;editable=1;overflow=hidden;" vertex="1" parent="7Tlc5VvbqHmBsngcXw7w-26">&#xa;          <mxGeometry width="30" height="30" as="geometry">&#xa;            <mxRectangle width="30" height="30" as="alternateBounds"/>&#xa;          </mxGeometry>&#xa;        </mxCell>&#xa;        <mxCell id="7Tlc5VvbqHmBsngcXw7w-28" value="license_plate" style="shape=partialRectangle;connectable=0;fillColor=none;top=0;left=0;bottom=0;right=0;align=left;spacingLeft=6;overflow=hidden;" vertex="1" parent="7Tlc5VvbqHmBsngcXw7w-26">&#xa;          <mxGeometry x="30" width="150" height="30" as="geometry">&#xa;            <mxRectangle width="150" height="30" as="alternateBounds"/>&#xa;          </mxGeometry>&#xa;        </mxCell>&#xa;        <mxCell id="7Tlc5VvbqHmBsngcXw7w-29" value="" style="shape=tableRow;horizontal=0;startSize=0;swimlaneHead=0;swimlaneBody=0;fillColor=none;collapsible=0;dropTarget=0;points=[[0,0.5],[1,0.5]];portConstraint=eastwest;top=0;left=0;right=0;bottom=0;" vertex="1" parent="7Tlc5VvbqHmBsngcXw7w-11">&#xa;          <mxGeometry y="180" width="180" height="30" as="geometry"/>&#xa;        </mxCell>&#xa;        <mxCell id="7Tlc5VvbqHmBsngcXw7w-30" value="" style="shape=partialRectangle;connectable=0;fillColor=none;top=0;left=0;bottom=0;right=0;editable=1;overflow=hidden;" vertex="1" parent="7Tlc5VvbqHmBsngcXw7w-29">&#xa;          <mxGeometry width="30" height="30" as="geometry">&#xa;            <mxRectangle width="30" height="30" as="alternateBounds"/>&#xa;          </mxGeometry>&#xa;        </mxCell>&#xa;        <mxCell id="7Tlc5VvbqHmBsngcXw7w-31" value="color" style="shape=partialRectangle;connectable=0;fillColor=none;top=0;left=0;bottom=0;right=0;align=left;spacingLeft=6;overflow=hidden;" vertex="1" parent="7Tlc5VvbqHmBsngcXw7w-29">&#xa;          <mxGeometry x="30" width="150" height="30" as="geometry">&#xa;            <mxRectangle width="150" height="30" as="alternateBounds"/>&#xa;          </mxGeometry>&#xa;        </mxCell>&#xa;        <mxCell id="7Tlc5VvbqHmBsngcXw7w-32" value="" style="shape=tableRow;horizontal=0;startSize=0;swimlaneHead=0;swimlaneBody=0;fillColor=none;collapsible=0;dropTarget=0;points=[[0,0.5],[1,0.5]];portConstraint=eastwest;top=0;left=0;right=0;bottom=0;" vertex="1" parent="7Tlc5VvbqHmBsngcXw7w-11">&#xa;          <mxGeometry y="210" width="180" height="30" as="geometry"/>&#xa;        </mxCell>&#xa;        <mxCell id="7Tlc5VvbqHmBsngcXw7w-33" value="" style="shape=partialRectangle;connectable=0;fillColor=none;top=0;left=0;bottom=0;right=0;editable=1;overflow=hidden;" vertex="1" parent="7Tlc5VvbqHmBsngcXw7w-32">&#xa;          <mxGeometry width="30" height="30" as="geometry">&#xa;            <mxRectangle width="30" height="30" as="alternateBounds"/>&#xa;          </mxGeometry>&#xa;        </mxCell>&#xa;        <mxCell id="7Tlc5VvbqHmBsngcXw7w-34" value="fuel_type" style="shape=partialRectangle;connectable=0;fillColor=none;top=0;left=0;bottom=0;right=0;align=left;spacingLeft=6;overflow=hidden;" vertex="1" parent="7Tlc5VvbqHmBsngcXw7w-32">&#xa;          <mxGeometry x="30" width="150" height="30" as="geometry">&#xa;            <mxRectangle width="150" height="30" as="alternateBounds"/>&#xa;          </mxGeometry>&#xa;        </mxCell>&#xa;        <mxCell id="7Tlc5VvbqHmBsngcXw7w-35" value="" style="shape=tableRow;horizontal=0;startSize=0;swimlaneHead=0;swimlaneBody=0;fillColor=none;collapsible=0;dropTarget=0;points=[[0,0.5],[1,0.5]];portConstraint=eastwest;top=0;left=0;right=0;bottom=0;" vertex="1" parent="7Tlc5VvbqHmBsngcXw7w-11">&#xa;          <mxGeometry y="240" width="180" height="30" as="geometry"/>&#xa;        </mxCell>&#xa;        <mxCell id="7Tlc5VvbqHmBsngcXw7w-36" value="" style="shape=partialRectangle;connectable=0;fillColor=none;top=0;left=0;bottom=0;right=0;editable=1;overflow=hidden;" vertex="1" parent="7Tlc5VvbqHmBsngcXw7w-35">&#xa;          <mxGeometry width="30" height="30" as="geometry">&#xa;            <mxRectangle width="30" height="30" as="alternateBounds"/>&#xa;          </mxGeometry>&#xa;        </mxCell>&#xa;        <mxCell id="7Tlc5VvbqHmBsngcXw7w-37" value="rate_per_hour" style="shape=partialRectangle;connectable=0;fillColor=none;top=0;left=0;bottom=0;right=0;align=left;spacingLeft=6;overflow=hidden;" vertex="1" parent="7Tlc5VvbqHmBsngcXw7w-35">&#xa;          <mxGeometry x="30" width="150" height="30" as="geometry">&#xa;            <mxRectangle width="150" height="30" as="alternateBounds"/>&#xa;          </mxGeometry>&#xa;        </mxCell>&#xa;        <mxCell id="7Tlc5VvbqHmBsngcXw7w-38" value="" style="shape=tableRow;horizontal=0;startSize=0;swimlaneHead=0;swimlaneBody=0;fillColor=none;collapsible=0;dropTarget=0;points=[[0,0.5],[1,0.5]];portConstraint=eastwest;top=0;left=0;right=0;bottom=0;" vertex="1" parent="7Tlc5VvbqHmBsngcXw7w-11">&#xa;          <mxGeometry y="270" width="180" height="30" as="geometry"/>&#xa;        </mxCell>&#xa;        <mxCell id="7Tlc5VvbqHmBsngcXw7w-39" value="" style="shape=partialRectangle;connectable=0;fillColor=none;top=0;left=0;bottom=0;right=0;editable=1;overflow=hidden;" vertex="1" parent="7Tlc5VvbqHmBsngcXw7w-38">&#xa;          <mxGeometry width="30" height="30" as="geometry">&#xa;            <mxRectangle width="30" height="30" as="alternateBounds"/>&#xa;          </mxGeometry>&#xa;        </mxCell>&#xa;        <mxCell id="7Tlc5VvbqHmBsngcXw7w-40" value="status" style="shape=partialRectangle;connectable=0;fillColor=none;top=0;left=0;bottom=0;right=0;align=left;spacingLeft=6;overflow=hidden;" vertex="1" parent="7Tlc5VvbqHmBsngcXw7w-38">&#xa;          <mxGeometry x="30" width="150" height="30" as="geometry">&#xa;            <mxRectangle width="150" height="30" as="alternateBounds"/>&#xa;          </mxGeometry>&#xa;        </mxCell>&#xa;        <mxCell id="7Tlc5VvbqHmBsngcXw7w-24" style="edgeStyle=orthogonalEdgeStyle;rounded=0;orthogonalLoop=1;jettySize=auto;html=1;entryX=1;entryY=0.5;entryDx=0;entryDy=0;" edge="1" parent="eHEStgPysliEP_XFdmOm-1" source="7Tlc5VvbqHmBsngcXw7w-15" target="cwxIfgcEZymbcGFHqmxq-1">&#xa;          <mxGeometry relative="1" as="geometry">&#xa;            <Array as="points">&#xa;              <mxPoint x="362" y="590"/>&#xa;              <mxPoint x="362" y="230"/>&#xa;            </Array>&#xa;          </mxGeometry>&#xa;        </mxCell>&#xa;        <mxCell id="7Tlc5VvbqHmBsngcXw7w-41" value="photos" style="shape=table;startSize=30;container=1;collapsible=1;childLayout=tableLayout;fixedRows=1;rowLines=0;fontStyle=1;align=center;resizeLast=1;html=1;" vertex="1" parent="eHEStgPysliEP_XFdmOm-1">&#xa;          <mxGeometry x="161" y="629" width="180" height="150" as="geometry"/>&#xa;        </mxCell>&#xa;        <mxCell id="7Tlc5VvbqHmBsngcXw7w-42" value="" style="shape=tableRow;horizontal=0;startSize=0;swimlaneHead=0;swimlaneBody=0;fillColor=none;collapsible=0;dropTarget=0;points=[[0,0.5],[1,0.5]];portConstraint=eastwest;top=0;left=0;right=0;bottom=1;" vertex="1" parent="7Tlc5VvbqHmBsngcXw7w-41">&#xa;          <mxGeometry y="30" width="180" height="30" as="geometry"/>&#xa;        </mxCell>&#xa;        <mxCell id="7Tlc5VvbqHmBsngcXw7w-43" value="PK" style="shape=partialRectangle;connectable=0;fillColor=none;top=0;left=0;bottom=0;right=0;fontStyle=1;overflow=hidden;whiteSpace=wrap;html=1;" vertex="1" parent="7Tlc5VvbqHmBsngcXw7w-42">&#xa;          <mxGeometry width="30" height="30" as="geometry">&#xa;            <mxRectangle width="30" height="30" as="alternateBounds"/>&#xa;          </mxGeometry>&#xa;        </mxCell>&#xa;        <mxCell id="7Tlc5VvbqHmBsngcXw7w-44" value="uuid" style="shape=partialRectangle;connectable=0;fillColor=none;top=0;left=0;bottom=0;right=0;align=left;spacingLeft=6;fontStyle=5;overflow=hidden;whiteSpace=wrap;html=1;" vertex="1" parent="7Tlc5VvbqHmBsngcXw7w-42">&#xa;          <mxGeometry x="30" width="150" height="30" as="geometry">&#xa;            <mxRectangle width="150" height="30" as="alternateBounds"/>&#xa;          </mxGeometry>&#xa;        </mxCell>&#xa;        <mxCell id="7Tlc5VvbqHmBsngcXw7w-45" value="" style="shape=tableRow;horizontal=0;startSize=0;swimlaneHead=0;swimlaneBody=0;fillColor=none;collapsible=0;dropTarget=0;points=[[0,0.5],[1,0.5]];portConstraint=eastwest;top=0;left=0;right=0;bottom=0;" vertex="1" parent="7Tlc5VvbqHmBsngcXw7w-41">&#xa;          <mxGeometry y="60" width="180" height="30" as="geometry"/>&#xa;        </mxCell>&#xa;        <mxCell id="7Tlc5VvbqHmBsngcXw7w-46" value="FK" style="shape=partialRectangle;connectable=0;fillColor=none;top=0;left=0;bottom=0;right=0;editable=1;overflow=hidden;whiteSpace=wrap;html=1;" vertex="1" parent="7Tlc5VvbqHmBsngcXw7w-45">&#xa;          <mxGeometry width="30" height="30" as="geometry">&#xa;            <mxRectangle width="30" height="30" as="alternateBounds"/>&#xa;          </mxGeometry>&#xa;        </mxCell>&#xa;        <mxCell id="7Tlc5VvbqHmBsngcXw7w-47" value="car_uuid" style="shape=partialRectangle;connectable=0;fillColor=none;top=0;left=0;bottom=0;right=0;align=left;spacingLeft=6;overflow=hidden;whiteSpace=wrap;html=1;" vertex="1" parent="7Tlc5VvbqHmBsngcXw7w-45">&#xa;          <mxGeometry x="30" width="150" height="30" as="geometry">&#xa;            <mxRectangle width="150" height="30" as="alternateBounds"/>&#xa;          </mxGeometry>&#xa;        </mxCell>&#xa;        <mxCell id="7Tlc5VvbqHmBsngcXw7w-48" value="" style="shape=tableRow;horizontal=0;startSize=0;swimlaneHead=0;swimlaneBody=0;fillColor=none;collapsible=0;dropTarget=0;points=[[0,0.5],[1,0.5]];portConstraint=eastwest;top=0;left=0;right=0;bottom=0;" vertex="1" parent="7Tlc5VvbqHmBsngcXw7w-41">&#xa;          <mxGeometry y="90" width="180" height="30" as="geometry"/>&#xa;        </mxCell>&#xa;        <mxCell id="7Tlc5VvbqHmBsngcXw7w-49" value="" style="shape=partialRectangle;connectable=0;fillColor=none;top=0;left=0;bottom=0;right=0;editable=1;overflow=hidden;whiteSpace=wrap;html=1;" vertex="1" parent="7Tlc5VvbqHmBsngcXw7w-48">&#xa;          <mxGeometry width="30" height="30" as="geometry">&#xa;            <mxRectangle width="30" height="30" as="alternateBounds"/>&#xa;          </mxGeometry>&#xa;        </mxCell>&#xa;        <mxCell id="7Tlc5VvbqHmBsngcXw7w-50" value="index" style="shape=partialRectangle;connectable=0;fillColor=none;top=0;left=0;bottom=0;right=0;align=left;spacingLeft=6;overflow=hidden;whiteSpace=wrap;html=1;" vertex="1" parent="7Tlc5VvbqHmBsngcXw7w-48">&#xa;          <mxGeometry x="30" width="150" height="30" as="geometry">&#xa;            <mxRectangle width="150" height="30" as="alternateBounds"/>&#xa;          </mxGeometry>&#xa;        </mxCell>&#xa;        <mxCell id="7Tlc5VvbqHmBsngcXw7w-51" value="" style="shape=tableRow;horizontal=0;startSize=0;swimlaneHead=0;swimlaneBody=0;fillColor=none;collapsible=0;dropTarget=0;points=[[0,0.5],[1,0.5]];portConstraint=eastwest;top=0;left=0;right=0;bottom=0;" vertex="1" parent="7Tlc5VvbqHmBsngcXw7w-41">&#xa;          <mxGeometry y="120" width="180" height="30" as="geometry"/>&#xa;        </mxCell>&#xa;        <mxCell id="7Tlc5VvbqHmBsngcXw7w-52" value="" style="shape=partialRectangle;connectable=0;fillColor=none;top=0;left=0;bottom=0;right=0;editable=1;overflow=hidden;whiteSpace=wrap;html=1;" vertex="1" parent="7Tlc5VvbqHmBsngcXw7w-51">&#xa;          <mxGeometry width="30" height="30" as="geometry">&#xa;            <mxRectangle width="30" height="30" as="alternateBounds"/>&#xa;          </mxGeometry>&#xa;        </mxCell>&#xa;        <mxCell id="7Tlc5VvbqHmBsngcXw7w-53" value="file_path" style="shape=partialRectangle;connectable=0;fillColor=none;top=0;left=0;bottom=0;right=0;align=left;spacingLeft=6;overflow=hidden;whiteSpace=wrap;html=1;" vertex="1" parent="7Tlc5VvbqHmBsngcXw7w-51">&#xa;          <mxGeometry x="30" width="150" height="30" as="geometry">&#xa;            <mxRectangle width="150" height="30" as="alternateBounds"/>&#xa;          </mxGeometry>&#xa;        </mxCell>&#xa;        <mxCell id="7Tlc5VvbqHmBsngcXw7w-54" style="edgeStyle=orthogonalEdgeStyle;rounded=0;orthogonalLoop=1;jettySize=auto;html=1;entryX=0;entryY=0.5;entryDx=0;entryDy=0;" edge="1" parent="eHEStgPysliEP_XFdmOm-1" source="7Tlc5VvbqHmBsngcXw7w-45" target="7Tlc5VvbqHmBsngcXw7w-12">&#xa;          <mxGeometry relative="1" as="geometry"/>&#xa;        </mxCell>&#xa;        <mxCell id="p40AB6dmaUH-xErVnCRz-0" style="edgeStyle=orthogonalEdgeStyle;rounded=0;orthogonalLoop=1;jettySize=auto;html=1;entryX=0;entryY=0.5;entryDx=0;entryDy=0;" edge="1" parent="eHEStgPysliEP_XFdmOm-1" source="7Tlc5VvbqHmBsngcXw7w-3" target="7Tlc5VvbqHmBsngcXw7w-12">&#xa;          <mxGeometry relative="1" as="geometry">&#xa;            <Array as="points">&#xa;              <mxPoint x="331" y="365"/>&#xa;              <mxPoint x="331" y="560"/>&#xa;            </Array>&#xa;          </mxGeometry>&#xa;        </mxCell>&#xa;      </root>&#xa;    </mxGraphModel>&#xa;  </diagram><diagram id="WvNRhAP51BLar5BrGAvD" name="user stories"><mxGraphModel dx="1162" dy="1212" grid="0" gridSize="10" guides="1" tooltips="1" connect="1" arrows="1" fold="1" page="0" pageScale="1" pageWidth="827" pageHeight="1169" math="0" shadow="0"><root><mxCell id="0"/><mxCell id="1" parent="0"/><mxCell id="HPpKwp4VCZ2jVlWSmneF-1" value="&lt;h1 style=&quot;font-size: 25px;&quot;&gt;Uit te werken userstories&lt;/h1&gt;&lt;div&gt;&lt;ul&gt;&lt;li style=&quot;font-size: 18px;&quot;&gt;Een gebruiker wil een account kunnen aanmaken&lt;br&gt;&lt;/li&gt;&lt;ul style=&quot;font-size: 18px;&quot;&gt;&lt;li&gt;E-mail/Wachtwoord/NAW gegevens invullen&lt;/li&gt;&lt;/ul&gt;&lt;li style=&quot;font-size: 18px;&quot;&gt;Een gebruiker moet een lijst van alle auto's kunnen zien&lt;/li&gt;&lt;ul style=&quot;font-size: 18px;&quot;&gt;&lt;li&gt;Overzicht met foto's, merk + model, prijs per dag/uur&lt;/li&gt;&lt;li&gt;Filteren op:&lt;/li&gt;&lt;ul&gt;&lt;li&gt;afstand vanaf huidige locatie (open street map icm geocoordinates)&lt;/li&gt;&lt;li&gt;Tarief&lt;/li&gt;&lt;li&gt;Merk&lt;/li&gt;&lt;/ul&gt;&lt;/ul&gt;&lt;li style=&quot;font-size: 18px;&quot;&gt;Een gebruiker moet voor een auto details kunnen zien inclusief beschikbaarheid&lt;/li&gt;&lt;ul style=&quot;font-size: 18px;&quot;&gt;&lt;li&gt;Meerdere foto's, beschikbaarheid per dag over de aankomende maanden&lt;/li&gt;&lt;/ul&gt;&lt;li style=&quot;font-size: 18px;&quot;&gt;Een gebruiker moet zijn auto kunnen registreren voor de verhuur&lt;/li&gt;&lt;ul style=&quot;font-size: 18px;&quot;&gt;&lt;li&gt;Invoeren van merk/model/kenteken/prijs per dag, uploaden van foto's&lt;/li&gt;&lt;/ul&gt;&lt;li&gt;&lt;font size=&quot;4&quot;&gt;Voor elk van zijn auto's, kan een gebruiker de rekentools gebruiken om:&lt;/font&gt;&lt;/li&gt;&lt;ul&gt;&lt;li&gt;&lt;font size=&quot;4&quot;&gt;Total cost of ownership te berekenen&lt;/font&gt;&lt;/li&gt;&lt;li&gt;&lt;font size=&quot;4&quot;&gt;Kosten per dag te berekenen&lt;/font&gt;&lt;/li&gt;&lt;/ul&gt;&lt;/ul&gt;&lt;div&gt;&lt;font size=&quot;4&quot;&gt;&lt;br&gt;&lt;/font&gt;&lt;/div&gt;&lt;/div&gt;&lt;div&gt;&lt;font size=&quot;4&quot;&gt;&lt;br&gt;&lt;/font&gt;&lt;/div&gt;&lt;div&gt;https://opendata.rdw.nl/resource/8ys7-d773.json?kenteken=L369JR # verbruik&lt;font size=&quot;4&quot;&gt;&lt;br&gt;&lt;/font&gt;&lt;/div&gt;&lt;div&gt;https://opendata.rdw.nl/resource/m9d7-ebf2.json?kenteken=L369JR # basisinfo&lt;br&gt;&lt;/div&gt;&lt;div&gt;https://wiki.openstreetmap.org/wiki/Nominatim # plaats -&amp;gt; lat/lang&lt;br&gt;&lt;/div&gt;" style="text;html=1;strokeColor=none;fillColor=none;spacing=5;spacingTop=-20;whiteSpace=wrap;overflow=hidden;rounded=0;" parent="1" vertex="1"><mxGeometry x="-218" y="-42" width="811" height="494" as="geometry"/></mxCell></root></mxGraphModel></diagram></mxfile>